<svg viewBox="0 0 180 180" fill="none" xmlns="http://www.w3.org/2000/svg">
<path d="M82.4324 151.412L29.1135 97.8686C24.9622 93.6998 24.9622 86.8386 29.1135 82.6698L82.4324 29.1266C86.5838 24.9578 93.4162 24.9578 97.5676 29.1266L150.886 82.6698C155.038 86.8386 155.038 93.6998 150.886 97.8686L97.5676 151.412C95.6154 153.372 92.5845 153.985 89.7961 154C87.203 154.014 84.2216 153.208 82.4324 151.412Z" fill="#4CAF50"/>
<path fill-rule="evenodd" clip-rule="evenodd" d="M125.577 76.9047C122.075 76.9047 119.177 79.6765 119.177 83.0275C119.177 85.7166 121.037 88.1161 123.675 88.9021V100.279C123.675 106.733 119.437 110.291 109.923 111.739L106.767 112.194C101.577 113.104 97.2098 114.635 93.7504 116.827V102.729L93.7936 101.897V98.8768C95.6098 97.3461 98.1612 96.3946 101.664 95.9809H101.707C107.718 95.1121 110.788 92.3816 110.788 87.955V81.2943C113.556 80.6324 115.675 78.2329 115.675 75.337C115.675 71.9446 112.777 69.1728 109.275 69.1728C105.772 69.1728 102.875 71.9446 102.875 75.3783C102.875 78.3157 105.08 80.7979 107.934 81.3771V87.9964C107.934 91.0578 105.945 92.6299 101.275 93.3332C98.2477 93.6641 95.7828 94.4088 93.8369 95.5672V72.9832C96.172 71.6594 97.7288 69.2599 97.7288 66.5294C97.7288 62.3924 94.2261 59 89.8585 59C85.5342 59 81.9882 62.351 81.9882 66.5294C81.9882 69.3013 83.545 71.7008 85.8801 72.9832V87.5503C84.1071 86.7229 81.9882 86.1437 79.4801 85.8541C73.6423 85.0267 72.9071 82.6272 72.9071 80.6V75.9252C75.7179 75.3046 77.8801 72.8637 77.8801 69.9264C77.8801 66.5754 74.9828 63.8036 71.4801 63.8036C67.9774 63.8036 65.0801 66.534 65.0801 69.8851C65.0801 72.8224 67.2423 75.2219 70.0531 75.8838V80.5587C70.0531 84.9853 73.0801 87.6744 79.0909 88.5018C81.9882 88.9155 84.1936 89.5361 85.8801 90.6531V105.496C81.8585 103.055 76.799 101.442 70.4855 100.697C60.7558 99.2903 56.4315 95.7738 56.4315 89.1959V86.5895C58.9828 85.7621 60.799 83.4868 60.799 80.7563C60.799 77.4053 57.9017 74.6335 54.399 74.6335C50.8963 74.6335 47.999 77.4053 47.999 80.7563C47.999 83.4454 49.8152 85.7621 52.3666 86.5895V89.1959C52.3666 93.9949 54.226 97.7596 57.945 100.366C60.7558 102.393 64.6909 103.717 69.9234 104.462H69.9666C76.972 105.33 82.1612 107.233 85.9234 110.212V153.49C85.9234 153.49 87.584 154.246 89.9234 154.246C92.2627 154.246 93.9234 153.503 93.9234 153.503V133.012L93.8369 129.702V121.668C97.2098 118.813 101.794 116.951 107.848 115.958L110.831 115.545C115.761 114.759 119.523 113.435 122.248 111.49C125.967 108.884 127.826 105.119 127.826 100.32V88.9021C130.161 88.0333 131.934 85.758 131.934 83.0689C131.934 81.4554 131.286 79.9247 130.118 78.725C128.907 77.5666 127.307 76.9047 125.577 76.9047ZM109.188 71.4895C106.983 71.4895 105.167 73.2271 105.167 75.3783C105.167 77.4469 107.026 79.2258 109.188 79.2258C111.394 79.2258 113.21 77.5296 113.21 75.3783C113.21 73.2271 111.437 71.4895 109.188 71.4895ZM67.372 69.8851C67.372 71.995 69.1882 73.7325 71.3936 73.7325C73.5558 73.7325 75.4152 71.995 75.4152 69.8851C75.4152 67.7752 73.599 66.0376 71.3936 66.0376C69.1882 66.0376 67.372 67.7338 67.372 69.8851ZM50.2909 80.6736C50.2909 82.8248 52.1071 84.521 54.3125 84.521C56.4747 84.521 58.3342 82.7834 58.3342 80.6736C58.3342 78.5637 56.5179 76.8261 54.3125 76.8261C52.1071 76.8261 50.2909 78.5223 50.2909 80.6736ZM84.2801 66.4467C84.2801 69.3426 86.745 71.7008 89.772 71.7008C92.799 71.7008 95.2639 69.3013 95.2639 66.4053C95.2639 63.5094 92.799 61.1513 89.772 61.1513C86.745 61.1513 84.2801 63.5094 84.2801 66.4467ZM121.556 83.0689C121.556 85.1788 123.329 86.9163 125.577 86.9163C127.783 86.9163 129.599 85.1788 129.599 83.0275C129.599 82.0346 129.253 81.0831 128.475 80.3384C127.696 79.6351 126.658 79.2214 125.577 79.2214C123.372 79.2214 121.556 80.959 121.556 83.0689Z" fill="#FAF8F9"/>
</svg>
