<svg viewBox="0 0 180 180" fill="none" xmlns="http://www.w3.org/2000/svg">
<g filter="url(#filter0_d_2_495)">
<path d="M82.4324 151.412L29.1135 97.8686C24.9622 93.6998 24.9622 86.8386 29.1135 82.6698L82.4324 29.1266C86.5838 24.9578 93.4162 24.9578 97.5676 29.1266L150.886 82.6698C155.038 86.8386 155.038 93.6998 150.886 97.8686L97.5676 151.412C95.6154 153.372 92.5845 153.985 89.7961 154C87.203 154.014 84.2216 153.208 82.4324 151.412Z" fill="#4CAF50"/>
</g>
<g filter="url(#filter1_d_2_495)">
<path d="M90.0019 121.467C89.1313 121.467 88.32 121.233 87.5666 120.825L79.8562 116.219C78.6958 115.578 79.2766 115.344 79.6243 115.228C81.1891 114.703 81.4789 114.586 83.1016 113.654C83.2767 113.537 83.5085 113.595 83.6811 113.712L89.595 117.269C89.8268 117.385 90.1153 117.385 90.2904 117.269L113.422 103.8C113.652 103.683 113.771 103.45 113.771 103.158V76.2789C113.771 75.9875 113.652 75.7544 113.422 75.6377L90.2904 62.2273C90.0586 62.1106 89.7676 62.1106 89.595 62.2273L66.4637 75.6377C66.2319 75.7544 66.116 76.0457 66.116 76.2789V103.158C66.116 103.392 66.2319 103.683 66.4637 103.8L72.782 107.473C76.2025 109.222 78.3481 107.182 78.3481 105.141V78.6113C78.3481 78.2616 78.6379 77.9117 79.0448 77.9117H82.0017C82.3494 77.9117 82.6972 78.2031 82.6972 78.6113V105.141C82.6972 109.747 80.2039 112.429 75.8548 112.429C74.5231 112.429 73.4799 112.429 70.5218 110.972L64.4353 107.473C62.9285 106.598 62 104.966 62 103.217V76.3373C62 74.588 62.9285 72.9556 64.4353 72.0808L87.5666 58.6122C89.0154 57.7959 90.9859 57.7959 92.436 58.6122L115.566 72.0808C117.073 72.9556 118 74.588 118 76.3373V103.217C118 104.966 117.073 106.598 115.566 107.473L92.436 120.942C91.7405 121.233 90.8699 121.467 90.0019 121.467Z" fill="#F9F9F9"/>
</g>
<g filter="url(#filter2_d_2_495)">
<path d="M97.1481 103.067C87.018 103.067 84.9336 98.406 84.9336 94.4445C84.9336 94.0949 85.2229 93.7453 85.628 93.7453H88.6382C88.9866 93.7453 89.2747 93.9785 89.2747 94.328C89.7376 97.4155 91.0698 98.9304 97.206 98.9304C102.068 98.9304 104.152 97.8234 104.152 95.202C104.152 93.6873 103.571 92.5804 95.9895 91.8229C89.681 91.1818 85.7437 89.7837 85.7437 84.7152C85.7437 79.9966 89.681 77.2 96.2789 77.2C103.689 77.2 107.335 79.7634 107.798 85.3563C107.798 85.5311 107.741 85.7057 107.627 85.8806C107.507 85.997 107.335 86.1136 107.159 86.1136H104.092C103.805 86.1136 103.514 85.8806 103.457 85.5892C102.761 82.385 100.966 81.3365 96.221 81.3365C90.8949 81.3365 90.2597 83.2006 90.2597 84.5988C90.2597 86.2881 91.0106 86.8127 98.1884 87.7447C105.308 88.6767 108.667 90.0168 108.667 95.0269C108.667 100.154 104.44 103.067 97.1481 103.067Z" fill="#F9F9F9"/>
</g>
<defs>
<filter id="filter0_d_2_495" x="26" y="26" width="130" height="130" filterUnits="userSpaceOnUse" color-interpolation-filters="sRGB">
<feFlood flood-opacity="0" result="BackgroundImageFix"/>
<feColorMatrix in="SourceAlpha" type="matrix" values="0 0 0 0 0 0 0 0 0 0 0 0 0 0 0 0 0 0 127 0" result="hardAlpha"/>
<feOffset dx="2" dy="2"/>
<feComposite in2="hardAlpha" operator="out"/>
<feColorMatrix type="matrix" values="0 0 0 0 0 0 0 0 0 0 0 0 0 0 0 0 0 0 0.2 0"/>
<feBlend mode="normal" in2="BackgroundImageFix" result="effect1_dropShadow_2_495"/>
<feBlend mode="normal" in="SourceGraphic" in2="effect1_dropShadow_2_495" result="shape"/>
</filter>
<filter id="filter1_d_2_495" x="62" y="58" width="58" height="65.4667" filterUnits="userSpaceOnUse" color-interpolation-filters="sRGB">
<feFlood flood-opacity="0" result="BackgroundImageFix"/>
<feColorMatrix in="SourceAlpha" type="matrix" values="0 0 0 0 0 0 0 0 0 0 0 0 0 0 0 0 0 0 127 0" result="hardAlpha"/>
<feOffset dx="2" dy="2"/>
<feComposite in2="hardAlpha" operator="out"/>
<feColorMatrix type="matrix" values="0 0 0 0 0 0 0 0 0 0 0 0 0 0 0 0 0 0 0.2 0"/>
<feBlend mode="normal" in2="BackgroundImageFix" result="effect1_dropShadow_2_495"/>
<feBlend mode="normal" in="SourceGraphic" in2="effect1_dropShadow_2_495" result="shape"/>
</filter>
<filter id="filter2_d_2_495" x="84.9336" y="77.2" width="25.7334" height="27.8667" filterUnits="userSpaceOnUse" color-interpolation-filters="sRGB">
<feFlood flood-opacity="0" result="BackgroundImageFix"/>
<feColorMatrix in="SourceAlpha" type="matrix" values="0 0 0 0 0 0 0 0 0 0 0 0 0 0 0 0 0 0 127 0" result="hardAlpha"/>
<feOffset dx="2" dy="2"/>
<feComposite in2="hardAlpha" operator="out"/>
<feColorMatrix type="matrix" values="0 0 0 0 0 0 0 0 0 0 0 0 0 0 0 0 0 0 0.2 0"/>
<feBlend mode="normal" in2="BackgroundImageFix" result="effect1_dropShadow_2_495"/>
<feBlend mode="normal" in="SourceGraphic" in2="effect1_dropShadow_2_495" result="shape"/>
</filter>
</defs>
</svg>
