<svg viewBox="0 0 180 180" fill="none" xmlns="http://www.w3.org/2000/svg">
<g filter="url(#filter0_d_2_496)">
<path d="M82.4324 151.412L29.1135 97.8686C24.9622 93.6998 24.9622 86.8386 29.1135 82.6698L82.4324 29.1266C86.5838 24.9578 93.4162 24.9578 97.5676 29.1266L150.886 82.6698C155.038 86.8386 155.038 93.6998 150.886 97.8686L97.5676 151.412C95.6154 153.372 92.5845 153.985 89.7961 154C87.203 154.014 84.2216 153.208 82.4324 151.412Z" fill="#4CAF50"/>
</g>
<g filter="url(#filter1_d_2_496)">
<path d="M57.7696 75.4338H68.782C72.0142 75.4609 74.3564 76.3907 75.8086 78.2217C77.2607 80.0528 77.7399 82.5537 77.2468 85.7245C77.0553 87.1734 76.6304 88.5944 75.9729 89.9883C75.3426 91.3823 74.4665 92.6393 73.3431 93.7602C71.9731 95.1812 70.5078 96.0832 68.9464 96.4661C67.3849 96.849 65.7684 97.0401 64.0976 97.0401H59.1667L57.6052 104.83H51.8936L57.7696 75.4338ZM62.5772 80.1077L60.1118 92.4072C60.2761 92.4343 60.4405 92.4482 60.6049 92.4482C60.7964 92.4482 60.9886 92.4482 61.1801 92.4482C63.81 92.4753 66.0018 92.2162 67.7547 91.6693C69.5077 91.0953 70.6861 89.1003 71.2886 85.6835C71.7816 82.8136 71.2886 81.1597 69.8093 80.7227C68.3571 80.2856 66.5359 80.0806 64.3442 80.1077C64.0154 80.1347 63.7007 80.1487 63.3991 80.1487C63.1254 80.1487 62.8377 80.1487 62.5361 80.1487L62.5772 80.1077Z" fill="#F9F9F9"/>
</g>
<g filter="url(#filter2_d_2_496)">
<path d="M83.7913 67.7234H89.4217L87.8305 75.5432H92.8898C95.6642 75.5981 97.7312 76.1712 99.0914 77.2627C100.479 78.3543 100.887 80.4291 100.315 83.4859L97.5818 97.1194H91.8698L94.481 84.1C94.7527 82.735 94.6711 81.7663 94.2362 81.1931C93.8012 80.6199 92.8628 80.3334 91.421 80.3334L86.8921 80.2924L83.5465 97.1194H77.916L83.7913 67.7234Z" fill="#F9F9F9"/>
</g>
<g filter="url(#filter3_d_2_496)">
<path d="M106.441 75.4338H117.454C120.686 75.4609 123.028 76.3907 124.48 78.2217C125.933 80.0528 126.412 82.5537 125.919 85.7245C125.727 87.1734 125.302 88.5944 124.645 89.9883C124.014 91.3823 123.138 92.6393 122.015 93.7602C120.645 95.1812 119.18 96.0832 117.618 96.4661C116.057 96.849 114.44 97.0401 112.769 97.0401H107.839L106.277 104.83H100.565L106.441 75.4338ZM111.249 80.1077L108.784 92.4072C108.948 92.4343 109.112 92.4482 109.277 92.4482C109.468 92.4482 109.661 92.4482 109.852 92.4482C112.482 92.4753 114.674 92.2162 116.427 91.6693C118.18 91.0953 119.358 89.1003 119.96 85.6835C120.454 82.8136 119.96 81.1597 118.481 80.7227C117.029 80.2856 115.208 80.0806 113.016 80.1077C112.687 80.1347 112.373 80.1487 112.071 80.1487C111.797 80.1487 111.51 80.1487 111.208 80.1487L111.249 80.1077Z" fill="#F9F9F9"/>
</g>
<defs>
<filter id="filter0_d_2_496" x="26" y="26" width="130" height="130" filterUnits="userSpaceOnUse" color-interpolation-filters="sRGB">
<feFlood flood-opacity="0" result="BackgroundImageFix"/>
<feColorMatrix in="SourceAlpha" type="matrix" values="0 0 0 0 0 0 0 0 0 0 0 0 0 0 0 0 0 0 127 0" result="hardAlpha"/>
<feOffset dx="2" dy="2"/>
<feComposite in2="hardAlpha" operator="out"/>
<feColorMatrix type="matrix" values="0 0 0 0 0 0 0 0 0 0 0 0 0 0 0 0 0 0 0.2 0"/>
<feBlend mode="normal" in2="BackgroundImageFix" result="effect1_dropShadow_2_496"/>
<feBlend mode="normal" in="SourceGraphic" in2="effect1_dropShadow_2_496" result="shape"/>
</filter>
<filter id="filter1_d_2_496" x="51.8936" y="75.4338" width="27.5408" height="31.396" filterUnits="userSpaceOnUse" color-interpolation-filters="sRGB">
<feFlood flood-opacity="0" result="BackgroundImageFix"/>
<feColorMatrix in="SourceAlpha" type="matrix" values="0 0 0 0 0 0 0 0 0 0 0 0 0 0 0 0 0 0 127 0" result="hardAlpha"/>
<feOffset dx="2" dy="2"/>
<feComposite in2="hardAlpha" operator="out"/>
<feColorMatrix type="matrix" values="0 0 0 0 0 0 0 0 0 0 0 0 0 0 0 0 0 0 0.2 0"/>
<feBlend mode="normal" in2="BackgroundImageFix" result="effect1_dropShadow_2_496"/>
<feBlend mode="normal" in="SourceGraphic" in2="effect1_dropShadow_2_496" result="shape"/>
</filter>
<filter id="filter2_d_2_496" x="77.916" y="67.7234" width="24.6494" height="31.396" filterUnits="userSpaceOnUse" color-interpolation-filters="sRGB">
<feFlood flood-opacity="0" result="BackgroundImageFix"/>
<feColorMatrix in="SourceAlpha" type="matrix" values="0 0 0 0 0 0 0 0 0 0 0 0 0 0 0 0 0 0 127 0" result="hardAlpha"/>
<feOffset dx="2" dy="2"/>
<feComposite in2="hardAlpha" operator="out"/>
<feColorMatrix type="matrix" values="0 0 0 0 0 0 0 0 0 0 0 0 0 0 0 0 0 0 0.2 0"/>
<feBlend mode="normal" in2="BackgroundImageFix" result="effect1_dropShadow_2_496"/>
<feBlend mode="normal" in="SourceGraphic" in2="effect1_dropShadow_2_496" result="shape"/>
</filter>
<filter id="filter3_d_2_496" x="100.565" y="75.4338" width="27.5408" height="31.396" filterUnits="userSpaceOnUse" color-interpolation-filters="sRGB">
<feFlood flood-opacity="0" result="BackgroundImageFix"/>
<feColorMatrix in="SourceAlpha" type="matrix" values="0 0 0 0 0 0 0 0 0 0 0 0 0 0 0 0 0 0 127 0" result="hardAlpha"/>
<feOffset dx="2" dy="2"/>
<feComposite in2="hardAlpha" operator="out"/>
<feColorMatrix type="matrix" values="0 0 0 0 0 0 0 0 0 0 0 0 0 0 0 0 0 0 0.2 0"/>
<feBlend mode="normal" in2="BackgroundImageFix" result="effect1_dropShadow_2_496"/>
<feBlend mode="normal" in="SourceGraphic" in2="effect1_dropShadow_2_496" result="shape"/>
</filter>
</defs>
</svg>
