<svg viewBox="0 0 180 180" fill="none" xmlns="http://www.w3.org/2000/svg">
<g filter="url(#filter0_d_2_494)">
<path d="M82.4324 151.412L29.1135 97.8686C24.9622 93.6998 24.9622 86.8386 29.1135 82.6698L82.4324 29.1266C86.5838 24.9578 93.4162 24.9578 97.5676 29.1266L150.886 82.6698C155.038 86.8386 155.038 93.6998 150.886 97.8686L97.5676 151.412C95.6154 153.372 92.5845 153.985 89.7961 154C87.203 154.014 84.2216 153.208 82.4324 151.412Z" fill="#4CAF50"/>
</g>
<g filter="url(#filter1_d_2_494)">
<path fill-rule="evenodd" clip-rule="evenodd" d="M110.838 82.0905C111.265 81.132 112.385 80.6945 113.343 81.1216C114.301 81.5487 114.734 82.6738 114.312 83.6322C113.885 84.5959 112.765 85.0282 111.806 84.6011C110.843 84.174 110.41 83.0541 110.838 82.0905ZM88.591 64.188C89.3514 63.464 90.5547 63.49 91.2787 64.2505C92.0027 65.011 91.9767 66.2142 91.2162 66.9434C90.4557 67.6674 89.2577 67.6414 88.5285 66.8809C87.8045 66.1152 87.8305 64.912 88.591 64.188ZM113.4 89.7994C113.4 90.3828 113.379 90.961 113.338 91.5391H110.936C110.697 91.5391 110.598 91.6954 110.598 91.9298V93.034C110.598 95.628 109.134 96.1957 107.853 96.3364C106.634 96.4718 105.28 95.8259 105.113 95.0759C104.394 91.0235 103.191 90.1588 101.295 88.6639C103.649 87.169 106.098 84.9657 106.098 82.0175C106.098 78.8298 103.915 76.8244 102.425 75.84C100.337 74.4649 98.024 74.1888 97.399 74.1888H72.5689C75.9337 70.4333 80.4966 67.7716 85.6584 66.8028L88.5858 69.8707C89.2473 70.5635 90.3411 70.5895 91.0339 69.928L94.3102 66.7976C101.17 68.0737 106.983 72.3449 110.327 78.2047L108.087 83.2676C107.702 84.1427 108.098 85.1688 108.968 85.5595L113.286 87.4763C113.364 88.2368 113.4 89.0129 113.4 89.7994ZM84.7 85.8303V81.4237H92.5965C93.0028 81.4237 95.4769 81.8977 95.4769 83.7416C95.4769 85.2782 93.581 85.8251 92.0235 85.8251L84.7 85.8303ZM66.7351 87.2836L70.8291 85.4657C71.7042 85.0751 72.1001 84.0542 71.7094 83.1739L70.8656 81.2675H74.1836V96.2166H67.4955C66.9174 94.1748 66.6049 92.0235 66.6049 89.7994C66.5996 88.9452 66.6465 88.1066 66.7351 87.2836ZM68.9644 81.9967C69.3915 82.9551 68.9592 84.0854 67.9956 84.5073C67.0372 84.9344 65.9121 84.5021 65.4902 83.5385C65.0631 82.5749 65.4954 81.455 66.459 81.0279C67.4174 80.6008 68.5425 81.0383 68.9644 81.9967ZM76.2202 111.416C75.1941 111.64 74.1836 110.983 73.9648 109.957C73.746 108.926 74.3971 107.915 75.4233 107.697C76.4494 107.478 77.4599 108.129 77.6786 109.16C77.8974 110.181 77.2463 111.197 76.2202 111.416ZM102.67 105.332C101.733 105.129 100.811 105.728 100.613 106.665L99.6596 111.119C96.7166 112.457 93.4455 113.197 90.0025 113.197C86.4814 113.197 83.1426 112.416 80.1424 111.025L79.1892 106.572C78.986 105.634 78.0693 105.04 77.1317 105.238L73.1991 106.082C72.4699 105.332 71.7928 104.53 71.1677 103.686H90.2942C90.513 103.686 90.6536 103.644 90.6536 103.452V96.6854C90.6536 96.4874 90.5078 96.451 90.2942 96.451H84.7V92.1642H90.7474C91.2995 92.1642 93.7008 92.3204 94.4664 95.3884C94.706 96.3312 95.2321 99.3991 95.5967 100.384C95.9561 101.488 97.4198 103.686 98.9824 103.686H108.509C108.619 103.686 108.733 103.676 108.853 103.649C108.191 104.545 107.467 105.4 106.686 106.191L102.67 105.332ZM103.582 111.509C102.556 111.285 101.905 110.275 102.123 109.249C102.342 108.223 103.353 107.566 104.379 107.79C105.405 108.009 106.061 109.025 105.837 110.051C105.618 111.072 104.608 111.728 103.582 111.509ZM121.568 89.216L118.88 87.5544C118.859 87.294 118.833 87.0336 118.802 86.7731L121.109 84.6219C121.344 84.4031 121.448 84.0802 121.385 83.7677C121.323 83.4551 121.104 83.1947 120.802 83.0801L117.849 81.9759C117.776 81.7206 117.697 81.4654 117.619 81.2154L119.458 78.6579C119.646 78.3975 119.682 78.0589 119.562 77.762C119.442 77.4651 119.172 77.2567 118.859 77.2047L115.744 76.6994C115.624 76.465 115.499 76.2306 115.369 76.0014L116.677 73.1314C116.812 72.8397 116.781 72.5012 116.604 72.2355C116.427 71.9699 116.124 71.8136 115.801 71.824L112.64 71.9334C112.478 71.7303 112.312 71.5271 112.14 71.3292L112.864 68.2508C112.937 67.9383 112.843 67.6101 112.619 67.3862C112.395 67.1622 112.067 67.0684 111.754 67.1414L108.676 67.8654C108.478 67.6987 108.275 67.532 108.072 67.3653L108.181 64.2036C108.191 63.8859 108.035 63.5786 107.77 63.4015C107.504 63.2244 107.165 63.1983 106.874 63.3285L104.004 64.6359C103.774 64.5109 103.54 64.3807 103.306 64.2609L102.8 61.1461C102.748 60.8283 102.54 60.5627 102.243 60.4429C101.946 60.3179 101.608 60.3596 101.347 60.5471L98.7897 62.391C98.5397 62.3128 98.2845 62.2347 98.0292 62.1618L96.9302 59.198C96.8208 58.8959 96.5604 58.6771 96.2426 58.6146C95.9301 58.5521 95.6072 58.6563 95.3884 58.8907L93.232 61.2034C92.9715 61.1721 92.7111 61.1461 92.4507 61.1252L90.7891 58.4375C90.6224 58.1667 90.3255 58 90.0025 58C89.6796 58 89.3827 58.1667 89.216 58.4375L87.5544 61.1252C87.294 61.1461 87.0336 61.1721 86.7731 61.2034L84.6167 58.8907C84.3979 58.6563 84.075 58.5521 83.7625 58.6146C83.4499 58.6771 83.1895 58.8959 83.0749 59.198L81.9707 62.1514C81.7154 62.2243 81.4602 62.3024 81.2102 62.3806L78.6527 60.5367C78.3922 60.3491 78.0537 60.3075 77.7568 60.4325C77.4599 60.5523 77.2515 60.8231 77.1994 61.1357L76.6942 64.2505C76.4598 64.3703 76.2254 64.4953 75.9962 64.6255L73.1262 63.3181C72.8345 63.1827 72.4959 63.214 72.2303 63.3911C71.9647 63.5682 71.8084 63.8703 71.8188 64.1932L71.9282 67.3549C71.725 67.5164 71.5219 67.6831 71.324 67.8549L68.2456 67.1309C67.9331 67.058 67.6049 67.1518 67.381 67.3757C67.1518 67.6049 67.0632 67.9279 67.1361 68.2404L67.8602 71.3188C67.6935 71.5167 67.5268 71.7198 67.3601 71.923L64.1984 71.8136C63.8807 71.8032 63.5734 71.9594 63.3963 72.2251C63.2192 72.4907 63.1931 72.8293 63.3233 73.121L64.6307 75.991C64.5057 76.2202 64.3755 76.4546 64.2557 76.689L61.1409 77.1942C60.8231 77.2463 60.5575 77.4547 60.4377 77.7516C60.3179 78.0485 60.3544 78.387 60.5419 78.6475L62.3858 81.205C62.3076 81.455 62.2295 81.7102 62.1566 81.9654L59.198 83.0749C58.8959 83.1843 58.6771 83.4447 58.6146 83.7625C58.5521 84.075 58.6563 84.3979 58.8907 84.6167L61.1982 86.7679C61.1721 87.0283 61.1461 87.2888 61.12 87.5492L58.4323 89.2108C58.1667 89.3879 58 89.6848 58 90.0025C58 90.3255 58.1667 90.6224 58.4375 90.7891L61.1252 92.4507C61.1461 92.7111 61.1721 92.9715 61.2034 93.232L58.8959 95.3884C58.6615 95.6072 58.5573 95.9301 58.6198 96.2426C58.6823 96.5551 58.9011 96.8156 59.2032 96.9302L62.1566 98.0344C62.2295 98.2897 62.3076 98.5449 62.3858 98.7949L60.5419 101.352C60.3544 101.613 60.3127 101.951 60.4377 102.248C60.5627 102.545 60.8283 102.759 61.1461 102.806L64.2557 103.316C64.3755 103.55 64.5005 103.785 64.6307 104.014L63.3233 106.884C63.1879 107.176 63.2192 107.514 63.3963 107.78C63.5734 108.046 63.8807 108.202 64.1984 108.191L67.3549 108.082C67.5216 108.285 67.6831 108.488 67.8549 108.686L67.1309 111.765C67.058 112.077 67.1518 112.4 67.3757 112.629C67.5997 112.859 67.9279 112.947 68.2404 112.874L71.3188 112.15C71.5167 112.322 71.7198 112.483 71.923 112.65L71.8136 115.812C71.8032 116.13 71.9594 116.437 72.2251 116.614C72.4907 116.791 72.8293 116.817 73.121 116.687L75.991 115.38C76.2202 115.51 76.4546 115.635 76.689 115.755L77.1942 118.864C77.2463 119.182 77.4547 119.448 77.7516 119.573C78.0485 119.698 78.387 119.656 78.6475 119.468L81.205 117.625C81.455 117.703 81.7102 117.781 81.9654 117.859L83.0697 120.812C83.1791 121.114 83.4395 121.333 83.7573 121.396C84.0698 121.458 84.3927 121.354 84.6115 121.12L86.7679 118.812C87.0283 118.843 87.2888 118.869 87.5492 118.89L89.2108 121.578C89.3775 121.849 89.6744 122.016 89.9973 122.016C90.3203 122.016 90.6172 121.849 90.7839 121.578L92.4454 118.89C92.7059 118.869 92.9663 118.843 93.2268 118.812L95.3832 121.12C95.6019 121.354 95.9249 121.458 96.2374 121.396C96.5499 121.333 96.8104 121.114 96.925 120.812L98.0292 117.859C98.2845 117.786 98.5397 117.708 98.7897 117.625L101.347 119.468C101.608 119.656 101.946 119.692 102.243 119.573C102.54 119.453 102.748 119.182 102.8 118.864L103.306 115.755C103.54 115.635 103.774 115.505 104.004 115.38L106.874 116.687C107.165 116.822 107.504 116.791 107.77 116.614C108.035 116.437 108.191 116.135 108.181 115.812L108.072 112.65C108.275 112.489 108.478 112.322 108.676 112.15L111.754 112.874C112.067 112.947 112.395 112.859 112.619 112.629C112.848 112.4 112.937 112.077 112.864 111.765L112.14 108.686C112.306 108.488 112.473 108.285 112.64 108.082L115.801 108.191C116.119 108.202 116.427 108.046 116.604 107.78C116.781 107.514 116.812 107.176 116.677 106.884L115.369 104.014C115.499 103.78 115.624 103.55 115.744 103.316L118.859 102.811C119.177 102.759 119.442 102.55 119.562 102.254C119.687 101.957 119.646 101.618 119.458 101.358L117.614 98.8001C117.692 98.5449 117.77 98.2949 117.843 98.0396L120.797 96.9354C121.099 96.8208 121.318 96.5656 121.38 96.2478C121.443 95.9353 121.338 95.6124 121.104 95.3936L118.797 93.2372C118.823 92.9767 118.849 92.7163 118.875 92.4559L121.562 90.7943C121.833 90.6276 122 90.3307 122 90.0078C122.005 89.6848 121.838 89.3879 121.568 89.216Z" fill="#F9F9F9"/>
</g>
<defs>
<filter id="filter0_d_2_494" x="26" y="26" width="130" height="130" filterUnits="userSpaceOnUse" color-interpolation-filters="sRGB">
<feFlood flood-opacity="0" result="BackgroundImageFix"/>
<feColorMatrix in="SourceAlpha" type="matrix" values="0 0 0 0 0 0 0 0 0 0 0 0 0 0 0 0 0 0 127 0" result="hardAlpha"/>
<feOffset dx="2" dy="2"/>
<feComposite in2="hardAlpha" operator="out"/>
<feColorMatrix type="matrix" values="0 0 0 0 0 0 0 0 0 0 0 0 0 0 0 0 0 0 0.2 0"/>
<feBlend mode="normal" in2="BackgroundImageFix" result="effect1_dropShadow_2_494"/>
<feBlend mode="normal" in="SourceGraphic" in2="effect1_dropShadow_2_494" result="shape"/>
</filter>
<filter id="filter1_d_2_494" x="58" y="58" width="66" height="66.0155" filterUnits="userSpaceOnUse" color-interpolation-filters="sRGB">
<feFlood flood-opacity="0" result="BackgroundImageFix"/>
<feColorMatrix in="SourceAlpha" type="matrix" values="0 0 0 0 0 0 0 0 0 0 0 0 0 0 0 0 0 0 127 0" result="hardAlpha"/>
<feOffset dx="2" dy="2"/>
<feComposite in2="hardAlpha" operator="out"/>
<feColorMatrix type="matrix" values="0 0 0 0 0 0 0 0 0 0 0 0 0 0 0 0 0 0 0.2 0"/>
<feBlend mode="normal" in2="BackgroundImageFix" result="effect1_dropShadow_2_494"/>
<feBlend mode="normal" in="SourceGraphic" in2="effect1_dropShadow_2_494" result="shape"/>
</filter>
</defs>
</svg>
