<svg viewBox="0 0 180 180" fill="none" xmlns="http://www.w3.org/2000/svg">
<g filter="url(#filter0_d_2_493)">
<path d="M82.4324 151.412L29.1135 97.8686C24.9622 93.6998 24.9622 86.8386 29.1135 82.6698L82.4324 29.1266C86.5838 24.9578 93.4162 24.9578 97.5676 29.1266L150.886 82.6698C155.038 86.8386 155.038 93.6998 150.886 97.8686L97.5676 151.412C95.6154 153.372 92.5845 153.985 89.7961 154C87.203 154.014 84.2216 153.208 82.4324 151.412Z" fill="#4CAF50"/>
</g>
<g filter="url(#filter1_d_2_493)">
<path d="M100.677 94.0202V89.0164H78.8147V94.0202H86.62V116.3H92.8337V94.0202H100.677Z" fill="#F9F9F9"/>
<path d="M103.155 115.712C104.157 116.219 105.342 116.6 106.71 116.853C108.078 117.107 109.52 117.234 111.036 117.234C112.513 117.234 113.917 117.094 115.246 116.815C116.576 116.536 117.742 116.077 118.744 115.436C119.745 114.795 120.539 113.958 121.123 112.924C121.708 111.89 122 110.612 122 109.09C122 107.987 121.833 107.02 121.499 106.189C121.165 105.358 120.683 104.619 120.054 103.972C119.424 103.325 118.67 102.745 117.79 102.231C116.91 101.717 115.917 101.232 114.813 100.775C114.003 100.445 113.277 100.125 112.635 99.8144C111.993 99.5037 111.447 99.1865 110.997 98.8631C110.548 98.5395 110.201 98.1972 109.957 97.8355C109.713 97.4742 109.591 97.0649 109.591 96.6083C109.591 96.1896 109.7 95.8123 109.918 95.4763C110.137 95.14 110.445 94.8514 110.843 94.6104C111.241 94.3694 111.729 94.1824 112.308 94.0491C112.886 93.916 113.528 93.8494 114.235 93.8494C114.748 93.8494 115.291 93.8874 115.863 93.9634C116.434 94.0397 117.009 94.157 117.587 94.3154C118.166 94.4741 118.728 94.6738 119.274 94.915C119.82 95.156 120.324 95.435 120.786 95.752V90.0629C119.848 89.7077 118.824 89.4444 117.713 89.2733C116.601 89.102 115.326 89.0164 113.888 89.0164C112.423 89.0164 111.036 89.1717 109.726 89.4826C108.415 89.7933 107.262 90.2786 106.267 90.9382C105.271 91.5978 104.484 92.4382 103.906 93.4592C103.328 94.4804 103.039 95.7013 103.039 97.1219C103.039 98.9361 103.569 100.484 104.629 101.765C105.689 103.046 107.298 104.131 109.456 105.018C110.304 105.361 111.094 105.697 111.826 106.027C112.558 106.357 113.191 106.699 113.724 107.054C114.257 107.41 114.678 107.796 114.986 108.215C115.294 108.634 115.449 109.109 115.449 109.642C115.449 110.035 115.352 110.4 115.159 110.736C114.967 111.072 114.674 111.364 114.283 111.611C113.891 111.859 113.403 112.052 112.818 112.192C112.234 112.331 111.55 112.401 110.766 112.401C109.43 112.401 108.107 112.17 106.796 111.707C105.486 111.244 104.272 110.549 103.155 109.623V115.712Z" fill="#F9F9F9"/>
</g>
<defs>
<filter id="filter0_d_2_493" x="26" y="26" width="130" height="130" filterUnits="userSpaceOnUse" color-interpolation-filters="sRGB">
<feFlood flood-opacity="0" result="BackgroundImageFix"/>
<feColorMatrix in="SourceAlpha" type="matrix" values="0 0 0 0 0 0 0 0 0 0 0 0 0 0 0 0 0 0 127 0" result="hardAlpha"/>
<feOffset dx="2" dy="2"/>
<feComposite in2="hardAlpha" operator="out"/>
<feColorMatrix type="matrix" values="0 0 0 0 0 0 0 0 0 0 0 0 0 0 0 0 0 0 0.2 0"/>
<feBlend mode="normal" in2="BackgroundImageFix" result="effect1_dropShadow_2_493"/>
<feBlend mode="normal" in="SourceGraphic" in2="effect1_dropShadow_2_493" result="shape"/>
</filter>
<filter id="filter1_d_2_493" x="78.8147" y="89.0164" width="45.1853" height="30.2178" filterUnits="userSpaceOnUse" color-interpolation-filters="sRGB">
<feFlood flood-opacity="0" result="BackgroundImageFix"/>
<feColorMatrix in="SourceAlpha" type="matrix" values="0 0 0 0 0 0 0 0 0 0 0 0 0 0 0 0 0 0 127 0" result="hardAlpha"/>
<feOffset dx="2" dy="2"/>
<feComposite in2="hardAlpha" operator="out"/>
<feColorMatrix type="matrix" values="0 0 0 0 0 0 0 0 0 0 0 0 0 0 0 0 0 0 0.2 0"/>
<feBlend mode="normal" in2="BackgroundImageFix" result="effect1_dropShadow_2_493"/>
<feBlend mode="normal" in="SourceGraphic" in2="effect1_dropShadow_2_493" result="shape"/>
</filter>
</defs>
</svg>
